{
  "accessors": [
    {
      "bufferView": 1,
      "componentType": 5123,
      "type": "SCALAR",
      "count": 2736
    },
    {
      "bufferView": 2,
      "componentType": 5126,
      "type": "VEC3",
      "count": 1824,
      "min": [3, 6, 6],
      "max": [16, 16, 16]
    },
    {
      "bufferView": 2,
      "componentType": 5126,
      "type": "VEC3",
      "byteOffset": 12,
      "count": 1824
    },
    {
      "bufferView": 2,
      "componentType": 5126,
      "type": "VEC2",
      "byteOffset": 24,
      "count": 1824
    },
    {
      "bufferView": 3,
      "componentType": 5123,
      "type": "SCALAR",
      "count": 2580
    },
    {
      "bufferView": 4,
      "componentType": 5126,
      "type": "VEC3",
      "count": 1720,
      "min": [0, 6, 6],
      "max": [11, 16, 16]
    },
    {
      "bufferView": 4,
      "componentType": 5126,
      "type": "VEC3",
      "byteOffset": 12,
      "count": 1720
    },
    {
      "bufferView": 4,
      "componentType": 5126,
      "type": "VEC2",
      "byteOffset": 24,
      "count": 1720
    },
    {
      "bufferView": 5,
      "componentType": 5123,
      "type": "SCALAR",
      "count": 3546
    },
    {
      "bufferView": 6,
      "componentType": 5126,
      "type": "VEC3",
      "count": 2364,
      "min": [3, 0, 6],
      "max": [16, 14, 16]
    },
    {
      "bufferView": 6,
      "componentType": 5126,
      "type": "VEC3",
      "byteOffset": 12,
      "count": 2364
    },
    {
      "bufferView": 6,
      "componentType": 5126,
      "type": "VEC2",
      "byteOffset": 24,
      "count": 2364
    },
    {
      "bufferView": 7,
      "componentType": 5123,
      "type": "SCALAR",
      "count": 3318
    },
    {
      "bufferView": 8,
      "componentType": 5126,
      "type": "VEC3",
      "count": 2212,
      "min": [0, 0, 6],
      "max": [11, 14, 16]
    },
    {
      "bufferView": 8,
      "componentType": 5126,
      "type": "VEC3",
      "byteOffset": 12,
      "count": 2212
    },
    {
      "bufferView": 8,
      "componentType": 5126,
      "type": "VEC2",
      "byteOffset": 24,
      "count": 2212
    },
    {
      "bufferView": 9,
      "componentType": 5123,
      "type": "SCALAR",
      "count": 3594
    },
    {
      "bufferView": 10,
      "componentType": 5126,
      "type": "VEC3",
      "count": 2396,
      "min": [3, 6, 0],
      "max": [16, 16, 14]
    },
    {
      "bufferView": 10,
      "componentType": 5126,
      "type": "VEC3",
      "byteOffset": 12,
      "count": 2396
    },
    {
      "bufferView": 10,
      "componentType": 5126,
      "type": "VEC2",
      "byteOffset": 24,
      "count": 2396
    },
    {
      "bufferView": 11,
      "componentType": 5123,
      "type": "SCALAR",
      "count": 3408
    },
    {
      "bufferView": 12,
      "componentType": 5126,
      "type": "VEC3",
      "count": 2272,
      "min": [0, 6, 0],
      "max": [11, 16, 14]
    },
    {
      "bufferView": 12,
      "componentType": 5126,
      "type": "VEC3",
      "byteOffset": 12,
      "count": 2272
    },
    {
      "bufferView": 12,
      "componentType": 5126,
      "type": "VEC2",
      "byteOffset": 24,
      "count": 2272
    },
    {
      "bufferView": 13,
      "componentType": 5123,
      "type": "SCALAR",
      "count": 4494
    },
    {
      "bufferView": 14,
      "componentType": 5126,
      "type": "VEC3",
      "count": 2996,
      "min": [3, 0, 0],
      "max": [16, 14, 14]
    },
    {
      "bufferView": 14,
      "componentType": 5126,
      "type": "VEC3",
      "byteOffset": 12,
      "count": 2996
    },
    {
      "bufferView": 14,
      "componentType": 5126,
      "type": "VEC2",
      "byteOffset": 24,
      "count": 2996
    },
    {
      "bufferView": 15,
      "componentType": 5123,
      "type": "SCALAR",
      "count": 4404
    },
    {
      "bufferView": 16,
      "componentType": 5126,
      "type": "VEC3",
      "count": 2936,
      "min": [0, 0, 0],
      "max": [11, 14, 14]
    },
    {
      "bufferView": 16,
      "componentType": 5126,
      "type": "VEC3",
      "byteOffset": 12,
      "count": 2936
    },
    {
      "bufferView": 16,
      "componentType": 5126,
      "type": "VEC2",
      "byteOffset": 24,
      "count": 2936
    }
  ],
  "asset": {
    "generator": "goxel",
    "version": "2.0"
  },
  "bufferViews": [
    {
      "buffer": 0,
      "byteLength": 112
    },
    {
      "buffer": 2,
      "byteLength": 5472
    },
    {
      "buffer": 1,
      "byteLength": 58368,
      "byteStride": 32
    },
    {
      "buffer": 4,
      "byteLength": 5160
    },
    {
      "buffer": 3,
      "byteLength": 55040,
      "byteStride": 32
    },
    {
      "buffer": 6,
      "byteLength": 7092
    },
    {
      "buffer": 5,
      "byteLength": 75648,
      "byteStride": 32
    },
    {
      "buffer": 8,
      "byteLength": 6636
    },
    {
      "buffer": 7,
      "byteLength": 70784,
      "byteStride": 32
    },
    {
      "buffer": 10,
      "byteLength": 7188
    },
    {
      "buffer": 9,
      "byteLength": 76672,
      "byteStride": 32
    },
    {
      "buffer": 12,
      "byteLength": 6816
    },
    {
      "buffer": 11,
      "byteLength": 72704,
      "byteStride": 32
    },
    {
      "buffer": 14,
      "byteLength": 8988
    },
    {
      "buffer": 13,
      "byteLength": 95872,
      "byteStride": 32
    },
    {
      "buffer": 16,
      "byteLength": 8808
    },
    {
      "buffer": 15,
      "byteLength": 93952,
      "byteStride": 32
    }
  ],
  "buffers": [
    {
      "uri": "data:application/octet-stream;base64,",
      "byteLength": 112
    },
    {
      "uri": "data:application/octet-stream;base64,",
      "byteLength": 58368
    },
    {
      "uri": "data:application/octet-stream;base64,",
      "byteLength": 5472
    },
    {
      "uri": "data:application/octet-stream;base64,",
      "byteLength": 55040
    },
    {
      "uri": "data:application/octet-stream;base64,",
      "byteLength": 5160
    },
    {
      "uri": "data:application/octet-stream;base64,",
      "byteLength": 75648
    },
    {
      "uri": "data:application/octet-stream;base64,",
      "byteLength": 7092
    },
    {
      "uri": "data:application/octet-stream;base64,",
      "byteLength": 70784
    },
    {
      "uri": "data:application/octet-stream;base64,",
      "byteLength": 6636
    },
    {
      "uri": "data:application/octet-stream;base64,",
      "byteLength": 76672
    },
    {
      "uri": "data:application/octet-stream;base64,",
      "byteLength": 7188
    },
    {
      "uri": "data:application/octet-stream;base64,",
      "byteLength": 72704
    },
    {
      "uri": "data:application/octet-stream;base64,",
      "byteLength": 6816
    },
    {
      "uri": "data:application/octet-stream;base64,",
      "byteLength": 95872
    },
    {
      "uri": "data:application/octet-stream;base64,",
      "byteLength": 8988
    },
    {
      "uri": "data:application/octet-stream;base64,",
      "byteLength": 93952
    },
    {
      "uri": "data:application/octet-stream;base64,",
      "byteLength": 8808
    }
  ],
  "images": [
    {
      "bufferView": 0,
      "mimeType": "image/png"
    }
  ],
  "meshes": [
    {
      "primitives": [
        {
          "indices": 0,
          "material": 0,
          "attributes": {
            "POSITION": 1,
            "NORMAL": 2,
            "TEXCOORD_0": 3
          }
        }
      ]
    },
    {
      "primitives": [
        {
          "indices": 4,
          "material": 0,
          "attributes": {
            "POSITION": 5,
            "NORMAL": 6,
            "TEXCOORD_0": 7
          }
        }
      ]
    },
    {
      "primitives": [
        {
          "indices": 8,
          "material": 0,
          "attributes": {
            "POSITION": 9,
            "NORMAL": 10,
            "TEXCOORD_0": 11
          }
        }
      ]
    },
    {
      "primitives": [
        {
          "indices": 12,
          "material": 0,
          "attributes": {
            "POSITION": 13,
            "NORMAL": 14,
            "TEXCOORD_0": 15
          }
        }
      ]
    },
    {
      "primitives": [
        {
          "indices": 16,
          "material": 0,
          "attributes": {
            "POSITION": 17,
            "NORMAL": 18,
            "TEXCOORD_0": 19
          }
        }
      ]
    },
    {
      "primitives": [
        {
          "indices": 20,
          "material": 0,
          "attributes": {
            "POSITION": 21,
            "NORMAL": 22,
            "TEXCOORD_0": 23
          }
        }
      ]
    },
    {
      "primitives": [
        {
          "indices": 24,
          "material": 0,
          "attributes": {
            "POSITION": 25,
            "NORMAL": 26,
            "TEXCOORD_0": 27
          }
        }
      ]
    },
    {
      "primitives": [
        {
          "indices": 28,
          "material": 0,
          "attributes": {
            "POSITION": 29,
            "NORMAL": 30,
            "TEXCOORD_0": 31
          }
        }
      ]
    }
  ],
  "materials": [
    {
      "name": "Material.1",
      "pbrMetallicRoughness": {
        "baseColorTexture": {
          "index": 0
        },
        "metallicFactor": 0.200000003,
        "roughnessFactor": 0.5
      }
    }
  ],
  "nodes": [
    {
      "children": [ 9 ],
      "matrix": [1, 0, 0, 0, 0, 0, -1, 0, 0, 1, 0, 0, 0, 0, 0, 1]
    },
    {
      "mesh": 0,
      "translation": [-16, -16, 0]
    },
    {
      "mesh": 1,
      "translation": [0, -16, 0]
    },
    {
      "mesh": 2,
      "translation": [-16, 0, 0]
    },
    {
      "mesh": 3,
      "translation": [0, 0, 0]
    },
    {
      "mesh": 4,
      "translation": [-16, -16, 16]
    },
    {
      "mesh": 5,
      "translation": [0, -16, 16]
    },
    {
      "mesh": 6,
      "translation": [-16, 0, 16]
    },
    {
      "mesh": 7,
      "translation": [0, 0, 16]
    },
    {
      "children": [ 1, 2, 3, 4, 5, 6, 7, 8 ]
    }
  ],
  "scenes": [
    {
      "nodes": [ 0 ]
    }
  ],
  "textures": [
    {
      "source": 0
    }
  ]
}
