{
  "accessors": [
    {
      "bufferView": 1,
      "componentType": 5123,
      "type": "SCALAR",
      "count": 1092
    },
    {
      "bufferView": 2,
      "componentType": 5126,
      "type": "VEC3",
      "count": 728,
      "min": [10, 11, 2],
      "max": [16, 16, 16]
    },
    {
      "bufferView": 2,
      "componentType": 5126,
      "type": "VEC3",
      "byteOffset": 12,
      "count": 728
    },
    {
      "bufferView": 2,
      "componentType": 5126,
      "type": "VEC2",
      "byteOffset": 24,
      "count": 728
    },
    {
      "bufferView": 3,
      "componentType": 5123,
      "type": "SCALAR",
      "count": 1782
    },
    {
      "bufferView": 4,
      "componentType": 5126,
      "type": "VEC3",
      "count": 1188,
      "min": [0, 4, 0],
      "max": [6, 15, 16]
    },
    {
      "bufferView": 4,
      "componentType": 5126,
      "type": "VEC3",
      "byteOffset": 12,
      "count": 1188
    },
    {
      "bufferView": 4,
      "componentType": 5126,
      "type": "VEC2",
      "byteOffset": 24,
      "count": 1188
    },
    {
      "bufferView": 5,
      "componentType": 5123,
      "type": "SCALAR",
      "count": 516
    },
    {
      "bufferView": 6,
      "componentType": 5126,
      "type": "VEC3",
      "count": 344,
      "min": [9, 0, 0],
      "max": [15, 3, 16]
    },
    {
      "bufferView": 6,
      "componentType": 5126,
      "type": "VEC3",
      "byteOffset": 12,
      "count": 344
    },
    {
      "bufferView": 6,
      "componentType": 5126,
      "type": "VEC2",
      "byteOffset": 24,
      "count": 344
    },
    {
      "bufferView": 7,
      "componentType": 5123,
      "type": "SCALAR",
      "count": 1254
    },
    {
      "bufferView": 8,
      "componentType": 5126,
      "type": "VEC3",
      "count": 836,
      "min": [10, 9, 0],
      "max": [16, 16, 12]
    },
    {
      "bufferView": 8,
      "componentType": 5126,
      "type": "VEC3",
      "byteOffset": 12,
      "count": 836
    },
    {
      "bufferView": 8,
      "componentType": 5126,
      "type": "VEC2",
      "byteOffset": 24,
      "count": 836
    },
    {
      "bufferView": 9,
      "componentType": 5123,
      "type": "SCALAR",
      "count": 1128
    },
    {
      "bufferView": 10,
      "componentType": 5126,
      "type": "VEC3",
      "count": 752,
      "min": [0, 9, 0],
      "max": [5, 16, 12]
    },
    {
      "bufferView": 10,
      "componentType": 5126,
      "type": "VEC3",
      "byteOffset": 12,
      "count": 752
    },
    {
      "bufferView": 10,
      "componentType": 5126,
      "type": "VEC2",
      "byteOffset": 24,
      "count": 752
    },
    {
      "bufferView": 11,
      "componentType": 5123,
      "type": "SCALAR",
      "count": 36
    },
    {
      "bufferView": 12,
      "componentType": 5126,
      "type": "VEC3",
      "count": 24,
      "min": [10, 0, 0],
      "max": [12, 1, 1]
    },
    {
      "bufferView": 12,
      "componentType": 5126,
      "type": "VEC3",
      "byteOffset": 12,
      "count": 24
    },
    {
      "bufferView": 12,
      "componentType": 5126,
      "type": "VEC2",
      "byteOffset": 24,
      "count": 24
    },
    {
      "bufferView": 13,
      "componentType": 5123,
      "type": "SCALAR",
      "count": 132
    },
    {
      "bufferView": 14,
      "componentType": 5126,
      "type": "VEC3",
      "count": 88,
      "min": [1, 6, 2],
      "max": [3, 12, 16]
    },
    {
      "bufferView": 14,
      "componentType": 5126,
      "type": "VEC3",
      "byteOffset": 12,
      "count": 88
    },
    {
      "bufferView": 14,
      "componentType": 5126,
      "type": "VEC2",
      "byteOffset": 24,
      "count": 88
    },
    {
      "bufferView": 15,
      "componentType": 5123,
      "type": "SCALAR",
      "count": 96
    },
    {
      "bufferView": 16,
      "componentType": 5126,
      "type": "VEC3",
      "count": 64,
      "min": [13, 0, 2],
      "max": [15, 1, 4]
    },
    {
      "bufferView": 16,
      "componentType": 5126,
      "type": "VEC3",
      "byteOffset": 12,
      "count": 64
    },
    {
      "bufferView": 16,
      "componentType": 5126,
      "type": "VEC2",
      "byteOffset": 24,
      "count": 64
    }
  ],
  "asset": {
    "generator": "goxel",
    "version": "2.0"
  },
  "bufferViews": [
    {
      "buffer": 0,
      "byteLength": 119
    },
    {
      "buffer": 2,
      "byteLength": 2184
    },
    {
      "buffer": 1,
      "byteLength": 23296,
      "byteStride": 32
    },
    {
      "buffer": 4,
      "byteLength": 3564
    },
    {
      "buffer": 3,
      "byteLength": 38016,
      "byteStride": 32
    },
    {
      "buffer": 6,
      "byteLength": 1032
    },
    {
      "buffer": 5,
      "byteLength": 11008,
      "byteStride": 32
    },
    {
      "buffer": 8,
      "byteLength": 2508
    },
    {
      "buffer": 7,
      "byteLength": 26752,
      "byteStride": 32
    },
    {
      "buffer": 10,
      "byteLength": 2256
    },
    {
      "buffer": 9,
      "byteLength": 24064,
      "byteStride": 32
    },
    {
      "buffer": 12,
      "byteLength": 72
    },
    {
      "buffer": 11,
      "byteLength": 768,
      "byteStride": 32
    },
    {
      "buffer": 14,
      "byteLength": 264
    },
    {
      "buffer": 13,
      "byteLength": 2816,
      "byteStride": 32
    },
    {
      "buffer": 16,
      "byteLength": 192
    },
    {
      "buffer": 15,
      "byteLength": 2048,
      "byteStride": 32
    }
  ],
  "buffers": [
    {
      "uri": "data:application/octet-stream;base64,",
      "byteLength": 119
    },
    {
      "uri": "data:application/octet-stream;base64,",
      "byteLength": 23296
    },
    {
      "uri": "data:application/octet-stream;base64,",
      "byteLength": 2184
    },
    {
      "uri": "data:application/octet-stream;base64,",
      "byteLength": 38016
    },
    {
      "uri": "data:application/octet-stream;base64,",
      "byteLength": 3564
    },
    {
      "uri": "data:application/octet-stream;base64,",
      "byteLength": 11008
    },
    {
      "uri": "data:application/octet-stream;base64,",
      "byteLength": 1032
    },
    {
      "uri": "data:application/octet-stream;base64,",
      "byteLength": 26752
    },
    {
      "uri": "data:application/octet-stream;base64,",
      "byteLength": 2508
    },
    {
      "uri": "data:application/octet-stream;base64,",
      "byteLength": 24064
    },
    {
      "uri": "data:application/octet-stream;base64,",
      "byteLength": 2256
    },
    {
      "uri": "data:application/octet-stream;base64,",
      "byteLength": 768
    },
    {
      "uri": "data:application/octet-stream;base64,",
      "byteLength": 72
    },
    {
      "uri": "data:application/octet-stream;base64,",
      "byteLength": 2816
    },
    {
      "uri": "data:application/octet-stream;base64,",
      "byteLength": 264
    },
    {
      "uri": "data:application/octet-stream;base64,",
      "byteLength": 2048
    },
    {
      "uri": "data:application/octet-stream;base64,",
      "byteLength": 192
    }
  ],
  "images": [
    {
      "bufferView": 0,
      "mimeType": "image/png"
    }
  ],
  "meshes": [
    {
      "primitives": [
        {
          "indices": 0,
          "material": 0,
          "attributes": {
            "POSITION": 1,
            "NORMAL": 2,
            "TEXCOORD_0": 3
          }
        }
      ]
    },
    {
      "primitives": [
        {
          "indices": 4,
          "material": 0,
          "attributes": {
            "POSITION": 5,
            "NORMAL": 6,
            "TEXCOORD_0": 7
          }
        }
      ]
    },
    {
      "primitives": [
        {
          "indices": 8,
          "material": 0,
          "attributes": {
            "POSITION": 9,
            "NORMAL": 10,
            "TEXCOORD_0": 11
          }
        }
      ]
    },
    {
      "primitives": [
        {
          "indices": 12,
          "material": 0,
          "attributes": {
            "POSITION": 13,
            "NORMAL": 14,
            "TEXCOORD_0": 15
          }
        }
      ]
    },
    {
      "primitives": [
        {
          "indices": 16,
          "material": 0,
          "attributes": {
            "POSITION": 17,
            "NORMAL": 18,
            "TEXCOORD_0": 19
          }
        }
      ]
    },
    {
      "primitives": [
        {
          "indices": 20,
          "material": 0,
          "attributes": {
            "POSITION": 21,
            "NORMAL": 22,
            "TEXCOORD_0": 23
          }
        }
      ]
    },
    {
      "primitives": [
        {
          "indices": 24,
          "material": 1,
          "attributes": {
            "POSITION": 25,
            "NORMAL": 26,
            "TEXCOORD_0": 27
          }
        }
      ]
    },
    {
      "primitives": [
        {
          "indices": 28,
          "material": 1,
          "attributes": {
            "POSITION": 29,
            "NORMAL": 30,
            "TEXCOORD_0": 31
          }
        }
      ]
    }
  ],
  "materials": [
    {
      "name": "Material.1",
      "pbrMetallicRoughness": {
        "baseColorTexture": {
          "index": 0
        },
        "metallicFactor": 0.200000003,
        "roughnessFactor": 0.5
      }
    },
    {
      "name": "Material.2",
      "pbrMetallicRoughness": {
        "baseColorTexture": {
          "index": 0
        },
        "metallicFactor": 0.200000003,
        "roughnessFactor": 0.5
      },
      "emissiveFactor": [2, 2, 2]
    }
  ],
  "nodes": [
    {
      "children": [ 7, 10 ],
      "matrix": [1, 0, 0, 0, 0, 0, -1, 0, 0, 1, 0, 0, 0, 0, 0, 1]
    },
    {
      "mesh": 0,
      "translation": [-16, -16, 0]
    },
    {
      "mesh": 1,
      "translation": [0, -16, 0]
    },
    {
      "mesh": 2,
      "translation": [-16, 0, 0]
    },
    {
      "mesh": 3,
      "translation": [-16, -16, 16]
    },
    {
      "mesh": 4,
      "translation": [0, -16, 16]
    },
    {
      "mesh": 5,
      "translation": [-16, 0, 16]
    },
    {
      "children": [ 1, 2, 3, 4, 5, 6 ]
    },
    {
      "mesh": 6,
      "translation": [0, -16, 0]
    },
    {
      "mesh": 7,
      "translation": [-16, 0, 0]
    },
    {
      "children": [ 8, 9 ]
    }
  ],
  "scenes": [
    {
      "nodes": [ 0 ]
    }
  ],
  "textures": [
    {
      "source": 0
    }
  ]
}
